<svg xmlns="http://www.w3.org/2000/svg" xmlns:xlink="http://www.w3.org/1999/xlink" width="500" zoomAndPan="magnify" viewBox="0 0 375 374.999991" height="500" preserveAspectRatio="xMidYMid meet" version="1.0"><defs><clipPath id="f4b1aa551b"><path d="M 234.339844 4.039062 L 307.839844 4.039062 L 307.839844 77.539062 L 234.339844 77.539062 Z M 234.339844 4.039062 " clip-rule="nonzero"/></clipPath><clipPath id="b8cb8807bc"><path d="M 271.246094 4.039062 C 250.863281 4.039062 234.339844 20.5625 234.339844 40.945312 C 234.339844 61.328125 250.863281 77.855469 271.246094 77.855469 C 291.628906 77.855469 308.15625 61.328125 308.15625 40.945312 C 308.15625 20.5625 291.628906 4.039062 271.246094 4.039062 Z M 271.246094 4.039062 " clip-rule="nonzero"/></clipPath><clipPath id="c962ee9404"><path d="M 255.578125 25.277344 L 286.921875 25.277344 L 286.921875 56.621094 L 255.578125 56.621094 Z M 255.578125 25.277344 " clip-rule="nonzero"/></clipPath><clipPath id="d54f3af728"><path d="M 271.25 25.277344 C 262.59375 25.277344 255.578125 32.292969 255.578125 40.949219 C 255.578125 49.605469 262.59375 56.621094 271.25 56.621094 C 279.90625 56.621094 286.921875 49.605469 286.921875 40.949219 C 286.921875 32.292969 279.90625 25.277344 271.25 25.277344 Z M 271.25 25.277344 " clip-rule="nonzero"/></clipPath><clipPath id="e63e4fe10f"><path d="M 67 286 L 161 286 L 161 371 L 67 371 Z M 67 286 " clip-rule="nonzero"/></clipPath><clipPath id="4975574119"><path d="M 133.109375 272.816406 L 169.390625 327.433594 L 104.109375 370.800781 L 67.828125 316.183594 Z M 133.109375 272.816406 " clip-rule="nonzero"/></clipPath><clipPath id="c5ee0ac92c"><path d="M 142.179688 286.46875 L 160.320312 313.777344 L 104.171875 370.757812 L 67.890625 316.140625 Z M 142.179688 286.46875 " clip-rule="nonzero"/></clipPath><clipPath id="98fd4cb44c"><path d="M 68 286 L 161 286 L 161 371 L 68 371 Z M 68 286 " clip-rule="nonzero"/></clipPath><clipPath id="e5e6aa3bf7"><path d="M 133.109375 272.816406 L 169.214844 327.167969 L 104.246094 370.328125 L 68.140625 315.976562 Z M 133.109375 272.816406 " clip-rule="nonzero"/></clipPath><clipPath id="950879e8dd"><path d="M 133.113281 272.816406 L 169.390625 327.429688 L 103.683594 371.078125 L 67.40625 316.464844 Z M 133.113281 272.816406 " clip-rule="nonzero"/></clipPath><clipPath id="6b630dd50f"><path d="M 142.179688 286.472656 L 160.320312 313.777344 L 104.175781 370.75 L 67.898438 316.140625 Z M 142.179688 286.472656 " clip-rule="nonzero"/></clipPath></defs><g clip-path="url(#f4b1aa551b)"><g clip-path="url(#b8cb8807bc)"><path stroke-linecap="butt" transform="matrix(0.75, 0, 0, 0.75, 234.338543, 4.037387)" fill="none" stroke-linejoin="miter" d="M 49.210071 0.00223462 C 22.032986 0.00223462 0.00173472 22.033486 0.00173472 49.210571 C 0.00173472 76.387656 22.032986 98.424116 49.210071 98.424116 C 76.387156 98.424116 98.423616 76.387656 98.423616 49.210571 C 98.423616 22.033486 76.387156 0.00223462 49.210071 0.00223462 Z M 49.210071 0.00223462 " stroke="#000000" stroke-width="22" stroke-opacity="1" stroke-miterlimit="4"/></g></g><path stroke-linecap="butt" transform="matrix(0.75, 0, 0, 0.75, 263.02613, 69.306924)" fill="none" stroke-linejoin="miter" d="M 0.00161883 5.002226 L 9.048494 5.002226 C 14.048495 5.002226 18.100578 9.05431 18.100578 14.049102 L 18.100578 210.038698 C 18.100578 211.512657 17.512037 212.929323 16.47037 213.97099 C 15.428703 215.012657 14.012036 215.601198 12.538078 215.601198 L 6.970369 215.601198 " stroke="#000000" stroke-width="10" stroke-opacity="1" stroke-miterlimit="4"/><path stroke-linecap="butt" transform="matrix(0.649519, -0.375, 0.375, 0.649519, 139.390265, 301.392403)" fill="none" stroke-linejoin="miter" d="M -0.00000240057 5.000965 L 209.507105 4.999046 " stroke="#000000" stroke-width="10" stroke-opacity="1" stroke-miterlimit="4"/><g clip-path="url(#c962ee9404)"><g clip-path="url(#d54f3af728)"><path fill="#000000" d="M 255.578125 25.277344 L 286.921875 25.277344 L 286.921875 56.621094 L 255.578125 56.621094 Z M 255.578125 25.277344 " fill-opacity="1" fill-rule="nonzero"/></g></g><g clip-path="url(#e63e4fe10f)"><g clip-path="url(#4975574119)"><g clip-path="url(#c5ee0ac92c)"><path fill="#ffffff" d="M 133.109375 272.816406 L 169.390625 327.433594 L 104.109375 370.800781 L 67.828125 316.183594 Z M 133.109375 272.816406 " fill-opacity="1" fill-rule="nonzero"/></g></g></g><g clip-path="url(#98fd4cb44c)"><g clip-path="url(#e5e6aa3bf7)"><g clip-path="url(#950879e8dd)"><g clip-path="url(#6b630dd50f)"><path stroke-linecap="butt" transform="matrix(0.414995, 0.624723, -0.624723, 0.414995, 133.111899, 272.817755)" fill="none" stroke-linejoin="miter" d="M 21.855329 0.00329864 L 65.564029 0.000515733 L 87.417281 104.388365 L 0.00276133 104.389592 Z M 21.855329 0.00329864 " stroke="#000000" stroke-width="12" stroke-opacity="1" stroke-miterlimit="4"/></g></g></g></g></svg>